<?xml version="1.0" encoding="UTF-8"?>
<svg version="1.1" xmlns="http://www.w3.org/2000/svg" width="50" height="50">
<path d="M0 0 C4.9961892 2.83184813 7.89529949 7.06089848 9.6875 12.4375 C10.24551903 18.67228951 9.79326137 22.90114277 6.6875 28.4375 C7.1825 29.9225 7.1825 29.9225 7.6875 31.4375 C6.82125 31.705625 5.955 31.97375 5.0625 32.25 C1.69867979 33.31084082 1.69867979 33.31084082 -1.0625 35.0625 C-6.19868164 37.23549992 -11.25231362 37.4121484 -16.59375 35.7109375 C-20.96532555 33.70458007 -23.49990243 31.39597066 -26.3125 27.4375 C-27.3025 26.7775 -28.2925 26.1175 -29.3125 25.4375 C-29.17140014 23.33301062 -29.02445825 21.2289123 -28.875 19.125 C-28.79378906 17.95324219 -28.71257813 16.78148437 -28.62890625 15.57421875 C-28.3125 12.4375 -28.3125 12.4375 -27.3125 9.4375 C-27.9725 9.1075 -28.6325 8.7775 -29.3125 8.4375 C-29.3125 7.4475 -29.3125 6.4575 -29.3125 5.4375 C-28.755625 5.705625 -28.19875 5.97375 -27.625 6.25 C-26.4803125 6.3428125 -26.4803125 6.3428125 -25.3125 6.4375 C-23.60141311 4.81647032 -21.93996694 3.14246537 -20.3125 1.4375 C-14.10020242 -2.75218907 -6.81448045 -2.98858122 0 0 Z " fill="#FADC9F" transform="translate(34.3125,7.5625)"/>
<path d="M0 0 C1.32 0 2.64 0 4 0 C4 3.63 4 7.26 4 11 C4.99 10.67 5.98 10.34 7 10 C7 14 7 14 5 16.25 C4.34 16.8275 3.68 17.405 3 18 C0.11562221 16.70700306 -1.87219421 15.34058637 -4 13 C-3.67 12.01 -3.34 11.02 -3 10 C-2.01 10.33 -1.02 10.66 0 11 C0 7.37 0 3.74 0 0 Z " fill="#628B8D" transform="translate(23,12)"/>
<path d="M0 0 C0.66 0 1.32 0 2 0 C2 0.99 2 1.98 2 3 C7.28 3 12.56 3 18 3 C18 2.01 18 1.02 18 0 C18.99 0.33 19.98 0.66 21 1 C20.67 2.65 20.34 4.3 20 6 C13.4 6 6.8 6 0 6 C-0.33 4.35 -0.66 2.7 -1 1 C-0.67 0.67 -0.34 0.34 0 0 Z " fill="#6B807C" transform="translate(15,30)"/>
<path d="M0 0 C-0.33 1.32 -0.66 2.64 -1 4 C-2.9375 3.6875 -2.9375 3.6875 -5 3 C-5.33 2.01 -5.66 1.02 -6 0 C-3.50907189 -1.24546405 -2.58919267 -0.7767578 0 0 Z " fill="#EFBB19" transform="translate(44,6)"/>
<path d="M0 0 C0.99 0 1.98 0 3 0 C3 0.99 3 1.98 3 3 C2.01 3 1.02 3 0 3 C0 2.01 0 1.02 0 0 Z " fill="#EE3C53" transform="translate(11,42)"/>
<path d="M0 0 C0.99 0 1.98 0 3 0 C3 0.66 3 1.32 3 2 C2.01 2 1.02 2 0 2 C0 1.34 0 0.68 0 0 Z " fill="#ED3D53" transform="translate(42,11)"/>
</svg>
